<?xml version="1.0" encoding="utf-8"?>
<svg viewBox="0 0 300 300" xmlns="http://www.w3.org/2000/svg" xmlns:xlink="http://www.w3.org/1999/xlink">
  <style>
    :root {
      --fg-0: #F5BDFC;
      --fg-1: #CCB0FF;
    }
    .bg { fill: #E9E8FA; }
    @media (prefers-color-scheme: dark) {
      .bg { fill: #333152; }
    }
  </style>
  <defs>
    <pattern x="0" y="0" width="25" height="25" patternUnits="userSpaceOnUse" viewBox="0 0 20 20" id="pattern-0">
      <path d="M 14.007 0 L 20 0 L -0.003 20 L -5.996 20 L 14.007 0 Z" style="fill: rgb(209, 209, 209);"/>
      <path d="M 33.99 0 L 39.983 0 L 19.98 20 L 13.987 20 L 33.99 0 Z" style="fill: rgb(209, 209, 209);"/>
    </pattern>
    <pattern id="pattern-0-0" patternTransform="matrix(1.299345, 0, 0, 1.099536, 54.3535, 56.979371)" xlink:href="#pattern-0"/>
    <linearGradient gradientUnits="userSpaceOnUse" x1="75" y1="0" x2="75" y2="150" id="gradient-2" gradientTransform="matrix(0.665704, 0.667812, -2, 2, 250.072197, -50.085926)">
      <stop offset="0" style="stop-color: var(--fg-0);"/>
      <stop offset="1" style="stop-color: var(--fg-1);"/>
    </linearGradient>
  </defs>
  <path d="M 0 0.002 C 0 0 141.441 0.002 141.441 0.002 C 141.441 0.002 141.441 141.441 141.441 141.443 L 0 141.441 C 0 141.443 0 0.002 0 0.002 Z" style="stroke-linecap: square; stroke-width: 50px; fill: url('#pattern-0-0'); paint-order: fill; fill-rule: nonzero;"/>
  <rect class="bg" width="141.441" height="141.441" style="stroke-linecap: square; stroke-width: 50px; fill: url('#gradient-2'); fill-opacity: 0.5;"/>
  <rect class="bg" x="158.559" y="0.002" width="141.441" height="141.441" style="stroke-linecap: square; stroke-width: 50px;"/>
  <rect class="bg" x="158.559" y="158.559" width="141.441" height="141.441" style="stroke-linecap: square; stroke-width: 50px;"/>
  <rect class="bg" y="158.559" width="141.441" height="141.441" style="stroke-linecap: square; stroke-width: 50px;"/>
</svg>