<?xml version="1.0" encoding="utf-8"?>
<svg viewBox="0 0 300 277" xmlns="http://www.w3.org/2000/svg">
  <style>
    :root {
      --fg-0: #F5BDFC;
      --fg-1: #CCB0FF;
      --fg-2: #BDF5FC;
      --fg-3: #9CFFDF;
    }
  </style>
  <defs>
    <linearGradient gradientUnits="userSpaceOnUse" x1="150" y1="56.142" x2="150" y2="238.261" id="gradient-0" gradientTransform="matrix(-1.165495, -1.172979, 2.053583, -2.053583, 22.533579, 620.019901)">
      <stop offset="0" style="stop-color: var(--fg-0);"/>
      <stop offset="1" style="stop-color: var(--fg-1);"/>
    </linearGradient>
  </defs>
  <path d="M 14.832 183.84 L 285.168 183.84 C 293.359 183.84 300 190.481 300 198.674 L 300 198.675 C 300 206.867 293.359 213.508 285.168 213.508 L 14.832 213.508 C 6.641 213.508 0 206.867 0 198.675 L 0 198.674 C 0 190.481 6.641 183.84 14.832 183.84 Z M 108.754 246.921 L 285.168 246.921 C 293.359 246.921 300 253.563 300 261.756 L 300 261.757 C 300 269.947 293.359 276.589 285.168 276.589 L 108.754 276.589 C 100.562 276.589 93.921 269.947 93.921 261.757 L 93.921 261.756 C 93.921 253.563 100.562 246.921 108.754 246.921 Z M 64.783 120.759 L 285.168 120.759 C 293.359 120.759 300 127.401 300 135.593 L 300 135.597 C 300 143.787 293.359 150.429 285.168 150.429 L 64.783 150.429 C 56.591 150.429 49.95 143.787 49.95 135.597 L 49.95 135.593 C 49.95 127.401 56.591 120.759 64.783 120.759 Z M 117.311 0 L 276.611 0 C 289.528 0 299.999 10.472 300 23.387 C 300 36.307 289.529 46.779 276.611 46.779 L 117.311 46.779 C 104.392 46.779 93.921 36.307 93.921 23.387 C 93.923 10.472 104.395 0 117.311 0 Z" style="stroke-linecap: square; stroke-width: 50px; fill: url('#gradient-0');"/>
</svg>