<?xml version="1.0" encoding="utf-8"?>
<svg viewBox="0 0 300 277" xmlns="http://www.w3.org/2000/svg">
  <style>
    :root {
      --fg-0: #F5BDFC;
      --fg-1: #CCB0FF;
      --fg-2: #BDF5FC;
      --fg-3: #9CFFDF;
    }
  </style>
  <defs>
    <linearGradient gradientUnits="userSpaceOnUse" x1="150.025" y1="36.308" x2="150.025" y2="258.095" id="gradient-0" gradientTransform="matrix(0.858834, 0.903846, -1.686497, 1.686497, 269.377057, -242.102133)">
      <stop offset="0" style="stop-color: var(--fg-1);"/>
      <stop offset="1" style="stop-color: var(--fg-0);"/>
    </linearGradient>
  </defs>
  <path d="M 70.351 0 L 229.649 0 C 242.566 0 253.038 10.469 253.039 23.384 C 253.039 36.298 242.567 46.768 229.649 46.768 L 70.351 46.768 C 57.433 46.768 46.961 36.298 46.961 23.384 C 46.962 10.469 57.434 0 70.351 0 Z M 14.832 183.8 L 285.168 183.8 C 293.359 183.8 300 190.439 300 198.629 L 300 198.631 C 300 206.82 293.359 213.461 285.168 213.461 L 14.832 213.461 C 6.641 213.461 0 206.82 0 198.631 L 0 198.629 C 0 190.439 6.641 183.8 14.832 183.8 Z M 39.807 120.734 L 260.192 120.734 C 268.385 120.734 275.025 127.372 275.025 135.563 L 275.025 135.564 C 275.025 143.755 268.385 150.394 260.192 150.394 L 39.807 150.394 C 31.613 150.394 24.974 143.755 24.974 135.564 L 24.974 135.563 C 24.974 127.372 31.613 120.734 39.807 120.734 Z M 61.793 246.863 L 238.207 246.863 C 246.4 246.863 253.039 253.505 253.039 261.695 L 253.039 261.697 C 253.039 269.886 246.4 276.526 238.207 276.526 L 61.793 276.526 C 53.6 276.526 46.961 269.886 46.961 261.697 L 46.961 261.695 C 46.961 253.505 53.6 246.863 61.793 246.863 Z" style="stroke-linecap: square; stroke-width: 50px; fill: url('#gradient-0');"/>
</svg>