<?xml version="1.0" encoding="utf-8"?>
<svg viewBox="0 0 158 158" xmlns="http://www.w3.org/2000/svg">
  <defs>
    <linearGradient gradientUnits="userSpaceOnUse" x1="73.912" y1="0.378" x2="73.912" y2="150.378" id="gradient-10" gradientTransform="matrix(1.001021, 0, 0, 1.001021, 7.756687, -158.153183)">
      <stop offset="0" style="stop-color: rgb(255, 112, 172);"/>
      <stop offset="1" style="stop-color: rgb(130, 255, 158);"/>
    </linearGradient>
    <linearGradient gradientUnits="userSpaceOnUse" x1="73.912" y1="0.378" x2="73.912" y2="150.378" id="gradient-1" gradientTransform="matrix(1.001021, 0, 0, 1.001021, -0.243668, -0.15303)">
      <stop offset="0" style="stop-color: rgb(255, 112, 172);"/>
      <stop offset="1" style="stop-color: rgb(130, 255, 158);"/>
    </linearGradient>
    <linearGradient gradientUnits="userSpaceOnUse" x1="73.912" y1="0.378" x2="73.912" y2="150.378" id="gradient-2" gradientTransform="matrix(1.001021, 0, 0, 1.001021, 3.755936, 3.847078)">
      <stop offset="0" style="stop-color: rgb(43, 46, 243);"/>
      <stop offset="1" style="stop-color: rgb(255, 112, 172);"/>
    </linearGradient>
  </defs>
  <rect width="150" height="150" style="stroke-linecap: square; stroke-width: 50px; fill: url('#gradient-10'); fill-opacity: 0.2;" y="-158" x="8" transform="matrix(1, 0, 0, -1, 0, 0)"/>
  <rect width="150" height="150" style="stroke-linecap: square; stroke-width: 50px; fill: url('#gradient-2'); fill-opacity: 0.4;" y="4" x="4"/>
  <path d="M 112.989 81.703 C 112.989 85.902 116.798 88.871 121.406 88.83 C 126.604 88.83 137.956 88.891 137.956 88.845 C 137.956 88.785 138.056 96.934 137.956 96.898 C 137.867 96.86 121.82 96.866 121.356 96.866 C 118.797 96.866 116.467 96.451 114.361 95.63 C 112.257 94.807 110.44 93.616 108.908 92.061 C 107.376 90.509 106.189 88.61 105.338 86.37 C 104.494 84.129 104.072 81.59 104.072 78.756 L 104.072 78.342 C 104.072 75.737 104.518 73.356 105.41 71.207 C 106.301 69.058 107.527 67.228 109.079 65.72 C 110.635 64.21 112.452 63.034 114.531 62.188 C 116.614 61.342 118.843 60.917 121.22 60.917 C 124.149 60.917 126.665 61.433 128.768 62.463 C 130.873 63.491 132.608 64.793 133.979 66.371 C 135.352 67.953 136.359 69.69 137 71.587 C 137.638 73.483 137.956 75.324 137.956 77.108 L 137.956 81.703 L 112.989 81.703 Z M 121.153 68.738 C 118.955 68.738 117.174 69.301 115.801 70.422 C 114.427 71.537 113.537 72.834 113.126 74.296 L 129.176 74.296 C 128.905 72.694 128.045 71.367 126.604 70.316 C 125.164 69.264 123.348 68.738 121.153 68.738 Z M 70.174 70.673 L 49.743 70.673 L 49.743 96.856 L 40.97 96.856 L 40.97 70.673 L 32.823 70.673 L 32.823 62.317 L 40.97 62.317 L 40.97 55.215 C 40.97 53.218 41.64 51.534 42.984 50.165 C 44.331 48.797 46.006 48.111 48.001 48.111 L 70.283 48.111 L 70.283 56.468 L 51.621 56.468 C 50.369 56.468 49.743 57.164 49.743 58.554 L 49.743 62.317 L 70.174 62.317 L 70.174 70.673 Z M 92.212 48.111 L 92.212 88.871 L 102.799 88.871 L 102.799 96.866 L 72.577 96.856 L 72.577 88.893 L 83.442 88.88 L 83.442 56.468 L 72.577 56.468 L 72.577 48.111 L 92.212 48.111 Z M 70.283 126.08 C 69.494 130.165 67.629 133.46 64.677 135.966 C 61.731 138.472 57.796 139.728 52.875 139.728 C 50.321 139.728 47.944 139.332 45.738 138.544 C 43.533 137.755 41.615 136.618 39.994 135.132 C 38.369 133.649 37.092 131.812 36.165 129.632 C 35.233 127.45 34.772 124.962 34.772 122.18 L 34.772 121.342 C 34.772 118.561 35.233 116.052 36.165 113.824 C 37.092 111.595 38.38 109.69 40.028 108.113 C 41.677 106.536 43.603 105.329 45.809 104.494 C 48.011 103.659 50.369 103.237 52.875 103.237 C 57.704 103.237 61.612 104.494 64.61 107 C 67.603 109.506 69.494 112.806 70.283 116.892 L 61.648 119.114 C 61.37 117.073 60.489 115.312 59.002 113.824 C 57.515 112.338 55.428 111.595 52.738 111.595 C 51.484 111.595 50.298 111.828 49.186 112.291 C 48.072 112.756 47.097 113.418 46.258 114.277 C 45.423 115.136 44.763 116.181 44.275 117.411 C 43.787 118.641 43.544 120.019 43.544 121.554 L 43.544 121.972 C 43.544 123.503 43.787 124.862 44.275 126.044 C 44.763 127.231 45.423 128.215 46.258 129.005 C 47.097 129.794 48.072 130.386 49.186 130.779 C 50.298 131.173 51.484 131.373 52.738 131.373 C 55.428 131.373 57.482 130.699 58.897 129.353 C 60.314 128.005 61.233 126.195 61.648 123.922 L 70.283 126.08 Z M 82.745 113.963 C 82.745 115.08 83.326 115.879 84.484 116.364 C 85.644 116.853 87.759 117.259 90.82 117.584 C 94.346 117.956 97.23 119.012 99.456 120.75 C 101.683 122.494 102.799 124.919 102.799 128.031 L 102.799 128.449 C 102.799 131.883 101.542 134.62 99.037 136.663 C 96.529 138.709 93.005 139.728 88.454 139.728 C 85.762 139.728 83.463 139.377 81.559 138.681 C 79.655 137.988 78.076 137.116 76.826 136.073 C 75.573 135.027 74.608 133.865 73.935 132.59 C 73.26 131.315 72.81 130.075 72.577 128.864 L 80.652 126.22 C 81.026 127.706 81.806 129.005 82.988 130.119 C 84.171 131.232 85.992 131.788 88.454 131.788 C 90.634 131.788 92.134 131.452 92.945 130.779 C 93.758 130.107 94.165 129.377 94.165 128.586 C 94.165 128.121 94.058 127.694 93.848 127.298 C 93.643 126.903 93.259 126.533 92.703 126.182 C 92.145 125.837 91.39 125.547 90.438 125.316 C 89.486 125.082 88.291 124.895 86.851 124.757 C 82.951 124.431 79.853 123.425 77.559 121.729 C 75.26 120.035 74.109 117.538 74.109 114.239 L 74.109 113.824 C 74.109 112.104 74.48 110.599 75.224 109.298 C 75.968 108.001 76.94 106.898 78.151 105.99 C 79.355 105.086 80.75 104.401 82.325 103.935 C 83.905 103.471 85.53 103.237 87.198 103.237 C 89.382 103.237 91.275 103.509 92.874 104.042 C 94.476 104.575 95.834 105.272 96.952 106.131 C 98.063 106.989 98.964 107.941 99.665 108.983 C 100.361 110.031 100.894 111.04 101.265 112.014 L 93.328 115.217 C 92.911 113.963 92.192 112.978 91.166 112.257 C 90.149 111.539 88.828 111.18 87.198 111.18 C 85.714 111.18 84.601 111.447 83.856 111.98 C 83.115 112.514 82.745 113.174 82.745 113.963 Z M 117.906 113.963 C 117.906 115.08 118.487 115.879 119.647 116.364 C 120.807 116.853 122.921 117.259 125.982 117.584 C 129.512 117.956 132.39 119.012 134.615 120.75 C 136.847 122.494 137.956 124.919 137.956 128.031 L 137.956 128.449 C 137.956 131.883 136.708 134.62 134.199 136.663 C 131.691 138.709 128.166 139.728 123.614 139.728 C 120.924 139.728 118.625 139.377 116.724 138.681 C 114.817 137.988 113.238 137.116 111.988 136.073 C 110.734 135.027 109.77 133.865 109.095 132.59 C 108.424 131.315 107.972 130.075 107.738 128.864 L 115.817 126.22 C 116.187 127.706 116.965 129.005 118.149 130.119 C 119.331 131.232 121.154 131.788 123.614 131.788 C 125.798 131.788 127.293 131.452 128.107 130.779 C 128.922 130.107 129.327 129.377 129.327 128.586 C 129.327 128.121 129.22 127.694 129.012 127.298 C 128.8 126.903 128.423 126.533 127.862 126.182 C 127.308 125.837 126.553 125.547 125.601 125.316 C 124.65 125.082 123.451 124.895 122.014 124.757 C 118.113 124.431 115.013 123.425 112.719 121.729 C 110.419 120.035 109.271 117.538 109.271 114.239 L 109.271 113.824 C 109.271 112.104 109.644 110.599 110.386 109.298 C 111.128 108.001 112.101 106.898 113.308 105.99 C 114.519 105.086 115.91 104.401 117.488 103.935 C 119.063 103.471 120.691 103.237 122.363 103.237 C 124.544 103.237 126.435 103.509 128.034 104.042 C 129.636 104.575 130.996 105.272 132.113 106.131 C 133.222 106.989 134.13 107.941 134.826 108.983 C 135.523 110.031 136.058 111.04 136.427 112.014 L 128.488 115.217 C 128.071 113.963 127.351 112.978 126.333 112.257 C 125.307 111.539 123.986 111.18 122.363 111.18 C 120.878 111.18 119.762 111.447 119.02 111.98 C 118.275 112.514 117.906 113.174 117.906 113.963 Z" style="fill: rgb(43, 46, 243);"/>
  <rect width="150" height="150" style="stroke-linecap: square; stroke-width: 50px; fill: url('#gradient-1'); fill-opacity: 0.6;"/>
  <path d="M 112.989 80.06 C 112.989 84.252 116.798 87.218 121.406 87.182 C 126.604 87.182 137.956 87.241 137.956 87.195 C 137.956 87.132 138.056 95.275 137.956 95.235 C 137.867 95.196 121.82 95.203 121.356 95.203 C 118.797 95.203 116.467 94.794 114.361 93.967 C 112.257 93.151 110.44 91.96 108.908 90.406 C 107.376 88.853 106.189 86.955 105.338 84.721 C 104.494 82.48 104.072 79.943 104.072 77.116 L 104.072 76.698 C 104.072 74.097 104.518 71.723 105.41 69.573 C 106.301 67.427 107.527 65.601 109.079 64.093 C 110.635 62.585 112.452 61.411 114.531 60.562 C 116.614 59.718 118.843 59.296 121.22 59.296 C 124.149 59.296 126.665 59.81 128.768 60.84 C 130.873 61.868 132.608 63.166 133.979 64.745 C 135.352 66.32 136.359 68.056 137 69.955 C 137.638 71.849 137.956 73.685 137.956 75.47 L 137.956 80.06 L 112.989 80.06 Z M 121.153 67.106 C 118.955 67.106 117.174 67.668 115.801 68.785 C 114.427 69.907 113.537 71.199 113.126 72.661 L 129.176 72.661 C 128.905 71.062 128.045 69.737 126.604 68.684 C 125.164 67.633 123.348 67.106 121.153 67.106 Z M 70.174 69.043 L 49.743 69.043 L 49.743 95.196 L 40.97 95.196 L 40.97 69.043 L 32.823 69.043 L 32.823 60.696 L 40.97 60.696 L 40.97 53.6 C 40.97 51.608 41.64 49.926 42.984 48.558 C 44.331 47.191 46.006 46.506 48.001 46.506 L 70.283 46.506 L 70.283 54.856 L 51.621 54.856 C 50.369 54.856 49.743 55.547 49.743 56.939 L 49.743 60.696 L 70.174 60.696 L 70.174 69.043 Z M 92.212 46.506 L 92.212 87.218 L 102.799 87.218 L 102.799 95.203 L 72.577 95.196 L 72.577 87.241 L 83.442 87.228 L 83.442 54.856 L 72.577 54.856 L 72.577 46.506 L 92.212 46.506 Z M 70.283 124.389 C 69.494 128.471 67.629 131.761 64.677 134.268 C 61.731 136.77 57.796 138.02 52.875 138.02 C 50.321 138.02 47.944 137.63 45.738 136.84 C 43.533 136.051 41.615 134.917 39.994 133.433 C 38.369 131.944 37.092 130.113 36.165 127.938 C 35.233 125.758 34.772 123.276 34.772 120.493 L 34.772 119.661 C 34.772 116.878 35.233 114.373 36.165 112.147 C 37.092 109.921 38.38 108.018 40.028 106.445 C 41.677 104.866 43.603 103.664 45.809 102.825 C 48.011 101.993 50.369 101.576 52.875 101.576 C 57.704 101.576 61.612 102.825 64.61 105.331 C 67.603 107.833 69.494 111.128 70.283 115.207 L 61.648 117.434 C 61.37 115.396 60.489 113.631 59.002 112.147 C 57.515 110.662 55.428 109.921 52.738 109.921 C 51.484 109.921 50.298 110.155 49.186 110.617 C 48.072 111.079 47.097 111.741 46.258 112.6 C 45.423 113.46 44.763 114.502 44.275 115.729 C 43.787 116.958 43.544 118.336 43.544 119.868 L 43.544 120.285 C 43.544 121.816 43.787 123.174 44.275 124.354 C 44.763 125.537 45.423 126.523 46.258 127.312 C 47.097 128.098 48.072 128.69 49.186 129.083 C 50.298 129.478 51.484 129.676 52.738 129.676 C 55.428 129.676 57.482 129.002 58.897 127.656 C 60.314 126.312 61.233 124.506 61.648 122.232 L 70.283 124.389 Z M 82.745 112.284 C 82.745 113.399 83.326 114.197 84.484 114.684 C 85.644 115.174 87.759 115.58 90.82 115.905 C 94.346 116.275 97.23 117.33 99.456 119.068 C 101.683 120.805 102.799 123.229 102.799 126.337 L 102.799 126.754 C 102.799 130.186 101.542 132.92 99.037 134.962 C 96.529 137.002 93.005 138.02 88.454 138.02 C 85.762 138.02 83.463 137.677 81.559 136.977 C 79.655 136.282 78.076 135.415 76.826 134.368 C 75.573 133.327 74.608 132.168 73.935 130.893 C 73.26 129.616 72.81 128.379 72.577 127.175 L 80.652 124.529 C 81.026 126.012 81.806 127.312 82.988 128.426 C 84.171 129.534 85.992 130.091 88.454 130.091 C 90.634 130.091 92.134 129.758 92.945 129.083 C 93.758 128.41 94.165 127.683 94.165 126.89 C 94.165 126.429 94.058 126 93.848 125.608 C 93.643 125.214 93.259 124.841 92.703 124.492 C 92.145 124.144 91.39 123.855 90.438 123.624 C 89.486 123.391 88.291 123.206 86.851 123.069 C 82.951 122.741 79.853 121.735 77.559 120.04 C 75.26 118.348 74.109 115.858 74.109 112.562 L 74.109 112.147 C 74.109 110.43 74.48 108.925 75.224 107.626 C 75.968 106.329 76.94 105.226 78.151 104.323 C 79.355 103.42 80.75 102.734 82.325 102.27 C 83.905 101.809 85.53 101.576 87.198 101.576 C 89.382 101.576 91.275 101.843 92.874 102.372 C 94.476 102.909 95.834 103.603 96.952 104.463 C 98.063 105.32 98.964 106.27 99.665 107.312 C 100.361 108.356 100.894 109.365 101.265 110.339 L 93.328 113.538 C 92.911 112.284 92.192 111.304 91.166 110.582 C 90.149 109.862 88.828 109.504 87.198 109.504 C 85.714 109.504 84.601 109.77 83.856 110.303 C 83.115 110.837 82.745 111.499 82.745 112.284 Z M 117.906 112.284 C 117.906 113.399 118.487 114.197 119.647 114.684 C 120.807 115.174 122.921 115.58 125.982 115.905 C 129.512 116.275 132.39 117.33 134.615 119.068 C 136.847 120.805 137.956 123.229 137.956 126.337 L 137.956 126.754 C 137.956 130.186 136.708 132.92 134.199 134.962 C 131.691 137.002 128.166 138.02 123.614 138.02 C 120.924 138.02 118.625 137.677 116.724 136.977 C 114.817 136.282 113.238 135.415 111.988 134.368 C 110.734 133.327 109.77 132.168 109.095 130.893 C 108.424 129.616 107.972 128.379 107.738 127.175 L 115.817 124.529 C 116.187 126.012 116.965 127.312 118.149 128.426 C 119.331 129.534 121.154 130.091 123.614 130.091 C 125.798 130.091 127.293 129.758 128.107 129.083 C 128.922 128.41 129.327 127.683 129.327 126.89 C 129.327 126.429 129.22 126 129.012 125.608 C 128.8 125.214 128.423 124.841 127.862 124.492 C 127.308 124.144 126.553 123.855 125.601 123.624 C 124.65 123.391 123.451 123.206 122.014 123.069 C 118.113 122.741 115.013 121.735 112.719 120.04 C 110.419 118.348 109.271 115.858 109.271 112.562 L 109.271 112.147 C 109.271 110.43 109.644 108.925 110.386 107.626 C 111.128 106.329 112.101 105.226 113.308 104.323 C 114.519 103.42 115.91 102.734 117.488 102.27 C 119.063 101.809 120.691 101.576 122.363 101.576 C 124.544 101.576 126.435 101.843 128.034 102.372 C 129.636 102.909 130.996 103.603 132.113 104.463 C 133.222 105.32 134.13 106.27 134.826 107.312 C 135.523 108.356 136.058 109.365 136.427 110.339 L 128.488 113.538 C 128.071 112.284 127.351 111.304 126.333 110.582 C 125.307 109.862 123.986 109.504 122.363 109.504 C 120.878 109.504 119.762 109.77 119.02 110.303 C 118.275 110.837 117.906 111.499 117.906 112.284 Z" style="fill: rgb(255, 255, 255);"/>
</svg>