<?xml version="1.0" encoding="utf-8"?>
<svg viewBox="0 0 158 158" xmlns="http://www.w3.org/2000/svg">
  <defs>
    <linearGradient gradientUnits="userSpaceOnUse" x1="75" y1="0" x2="75" y2="150" id="gradient-0" gradientTransform="matrix(1, 0, 0, 1, 0, -149.999985)">
      <stop offset="0" style="stop-opacity: 0.9; stop-color: rgb(33, 255, 214);"/>
      <stop offset="1" style="stop-opacity: 0.5; stop-color: rgb(112, 255, 248);"/>
    </linearGradient>
    <linearGradient gradientUnits="userSpaceOnUse" x1="75" y1="0" x2="75" y2="150" id="gradient-1" gradientTransform="matrix(1, 0, 0, 1, 3.999615, 3.999695)">
      <stop offset="0" style="stop-opacity: 0.5; stop-color: rgb(153, 153, 255);"/>
      <stop offset="1" style="stop-opacity: 0.7; stop-color: rgb(251, 137, 234);"/>
    </linearGradient>
    <linearGradient gradientUnits="userSpaceOnUse" x1="75" y1="0" x2="75" y2="150" id="gradient-2" gradientTransform="matrix(1, 0, 0, 1, 8.000099, -158.000702)">
      <stop offset="0" style="stop-opacity: 0.5; stop-color: rgb(112, 255, 248);"/>
      <stop offset="1" style="stop-color: rgb(33, 255, 214); stop-opacity: 0.3;"/>
    </linearGradient>
  </defs>
  <rect width="150" height="150" style="stroke-linecap: square; stroke-width: 50px; fill: url('#gradient-2');" transform="matrix(1, 0, 0, -1, 0, 0)" y="-158" x="8"/>
  <rect width="150" height="150" style="stroke-linecap: square; stroke-width: 50px; fill: url('#gradient-1');" y="4" x="4"/>
  <rect width="150" height="150" style="stroke-linecap: square; stroke-width: 50px; fill: url('#gradient-0');" transform="matrix(1, 0, 0, -1, 0, 0)" y="-150"/>
  <path d="M 112.521 78.941 C 112.521 83.186 116.356 86.184 120.995 86.141 C 126.228 86.139 137.66 86.194 137.66 86.148 C 137.66 86.087 137.76 94.324 137.66 94.287 C 137.57 94.248 121.413 94.262 120.945 94.262 C 118.369 94.263 116.022 93.846 113.903 93.017 C 111.783 92.186 109.954 90.982 108.411 89.412 C 106.869 87.845 105.674 85.925 104.818 83.663 C 103.966 81.398 103.542 78.831 103.542 75.967 L 103.542 75.548 C 103.542 72.915 103.99 70.509 104.889 68.337 C 105.787 66.164 107.02 64.315 108.584 62.789 C 110.15 61.262 111.98 60.073 114.074 59.217 C 116.171 58.361 118.415 57.93 120.809 57.929 C 123.757 57.928 126.29 58.447 128.407 59.487 C 130.527 60.527 132.275 61.841 133.656 63.435 C 135.037 65.033 136.051 66.789 136.697 68.706 C 137.341 70.621 137.66 72.482 137.66 74.285 L 137.66 78.929 L 112.521 78.941 Z M 120.742 65.834 C 118.527 65.835 116.734 66.404 115.352 67.539 C 113.968 68.665 113.073 69.977 112.658 71.455 L 128.82 71.447 C 128.547 69.828 127.681 68.488 126.228 67.426 C 124.779 66.363 122.952 65.833 120.742 65.834 Z M 69.409 67.813 L 48.838 67.823 L 48.838 94.286 L 40.004 94.29 L 40.004 67.827 L 31.8 67.831 L 31.8 59.386 L 40.004 59.382 L 40.004 52.204 C 40.004 50.185 40.677 48.483 42.032 47.098 C 43.387 45.716 45.075 45.022 47.083 45.021 L 69.521 45.01 L 69.521 53.456 L 50.729 53.465 C 49.468 53.466 48.838 54.17 48.838 55.575 L 48.838 59.378 L 69.409 59.368 L 69.409 67.813 Z M 91.599 45 L 91.599 86.196 L 102.26 86.191 L 102.26 94.271 L 71.829 94.275 L 71.829 86.227 L 82.769 86.209 L 82.769 53.45 L 71.829 53.455 L 71.829 45.009 L 91.599 45 Z" style="fill: rgba(48, 8, 195, 0.61);"/>
  <path d="M 69.661 123.088 C 68.864 127.217 66.987 130.547 64.014 133.08 C 61.047 135.612 57.085 136.882 52.131 136.882 C 49.559 136.882 47.166 136.482 44.944 135.685 C 42.724 134.888 40.793 133.739 39.162 132.237 C 37.524 130.738 36.239 128.882 35.305 126.678 C 34.367 124.472 33.904 121.958 33.904 119.147 L 33.904 118.299 C 33.904 115.489 34.367 112.952 35.305 110.7 C 36.239 108.448 37.535 106.522 39.195 104.929 C 40.855 103.335 42.794 102.115 45.015 101.271 C 47.234 100.427 49.608 100 52.131 100 C 56.994 100 60.928 101.271 63.946 103.804 C 66.961 106.337 68.864 109.672 69.661 113.802 L 60.964 116.047 C 60.685 113.985 59.797 112.205 58.3 110.7 C 56.802 109.199 54.702 108.448 51.993 108.448 C 50.732 108.448 49.536 108.683 48.417 109.151 C 47.295 109.621 46.313 110.291 45.468 111.158 C 44.627 112.027 43.962 113.084 43.472 114.326 C 42.981 115.569 42.735 116.962 42.735 118.513 L 42.735 118.936 C 42.735 120.484 42.981 121.857 43.472 123.051 C 43.962 124.252 44.627 125.246 45.468 126.045 C 46.313 126.841 47.295 127.44 48.417 127.837 C 49.536 128.235 50.732 128.438 51.993 128.438 C 54.702 128.438 56.769 127.756 58.195 126.396 C 59.622 125.033 60.546 123.204 60.964 120.906 L 69.661 123.088 Z M 82.207 110.842 C 82.207 111.97 82.792 112.778 83.959 113.268 C 85.127 113.762 87.255 114.173 90.338 114.501 C 93.889 114.877 96.792 115.945 99.034 117.701 C 101.276 119.463 102.4 121.915 102.4 125.059 L 102.4 125.482 C 102.4 128.953 101.135 131.72 98.612 133.784 C 96.087 135.852 92.538 136.882 87.956 136.882 C 85.245 136.882 82.931 136.527 81.013 135.824 C 79.096 135.123 77.506 134.242 76.249 133.188 C 74.986 132.131 74.015 130.956 73.335 129.667 C 72.657 128.379 72.204 127.126 71.969 125.902 L 80.099 123.23 C 80.478 124.732 81.262 126.045 82.453 127.17 C 83.644 128.295 85.478 128.857 87.956 128.857 C 90.152 128.857 91.661 128.518 92.479 127.837 C 93.297 127.158 93.705 126.42 93.705 125.621 C 93.705 125.151 93.598 124.72 93.388 124.319 C 93.181 123.92 92.794 123.546 92.235 123.191 C 91.672 122.843 90.913 122.549 89.954 122.316 C 88.995 122.079 87.793 121.891 86.341 121.751 C 82.415 121.422 79.296 120.404 76.986 118.691 C 74.67 116.978 73.511 114.455 73.511 111.12 L 73.511 110.7 C 73.511 108.963 73.886 107.441 74.635 106.127 C 75.384 104.816 76.362 103.7 77.581 102.783 C 78.794 101.869 80.199 101.177 81.785 100.706 C 83.375 100.237 85.012 100 86.692 100 C 88.89 100 90.797 100.276 92.406 100.814 C 94.02 101.353 95.387 102.058 96.513 102.926 C 97.632 103.793 98.539 104.755 99.245 105.808 C 99.945 106.867 100.482 107.887 100.855 108.872 L 92.864 112.108 C 92.445 110.842 91.72 109.846 90.687 109.117 C 89.664 108.391 88.332 108.029 86.692 108.029 C 85.197 108.029 84.076 108.298 83.325 108.837 C 82.58 109.377 82.207 110.044 82.207 110.842 Z M 117.612 110.842 C 117.612 111.97 118.197 112.778 119.365 113.268 C 120.533 113.762 122.662 114.173 125.744 114.501 C 129.298 114.877 132.197 115.945 134.436 117.701 C 136.683 119.463 137.8 121.915 137.8 125.059 L 137.8 125.482 C 137.8 128.953 136.544 131.72 134.017 133.784 C 131.491 135.852 127.942 136.882 123.359 136.882 C 120.65 136.882 118.336 136.527 116.421 135.824 C 114.502 135.123 112.91 134.242 111.652 133.188 C 110.389 132.131 109.419 130.956 108.74 129.667 C 108.064 128.379 107.608 127.126 107.373 125.902 L 115.508 123.23 C 115.88 124.732 116.665 126.045 117.856 127.17 C 119.045 128.295 120.883 128.857 123.359 128.857 C 125.558 128.857 127.064 128.518 127.883 127.837 C 128.704 127.158 129.113 126.42 129.113 125.621 C 129.113 125.151 129.003 124.72 128.794 124.319 C 128.58 123.92 128.202 123.546 127.636 123.191 C 127.08 122.843 126.318 122.549 125.359 122.316 C 124.402 122.079 123.194 121.891 121.749 121.751 C 117.82 121.422 114.699 120.404 112.388 118.691 C 110.073 116.978 108.917 114.455 108.917 111.12 L 108.917 110.7 C 108.917 108.963 109.292 107.441 110.04 106.127 C 110.786 104.816 111.766 103.7 112.983 102.783 C 114.202 101.869 115.602 101.177 117.192 100.706 C 118.777 100.237 120.417 100 122.099 100 C 124.296 100 126.201 100.276 127.811 100.814 C 129.422 101.353 130.792 102.058 131.915 102.926 C 133.033 103.793 133.947 104.755 134.649 105.808 C 135.351 106.867 135.888 107.887 136.261 108.872 L 128.267 112.108 C 127.847 110.842 127.122 109.846 126.097 109.117 C 125.063 108.391 123.733 108.029 122.099 108.029 C 120.604 108.029 119.48 108.298 118.734 108.837 C 117.984 109.377 117.612 110.044 117.612 110.842 Z" style="fill: rgba(48, 8, 195, 0.61);"/>
  <path d="M 112.989 79.937 C 112.989 84.129 116.798 87.095 121.406 87.059 C 126.604 87.059 137.956 87.118 137.956 87.072 C 137.956 87.009 138.056 95.152 137.956 95.112 C 137.867 95.073 121.82 95.08 121.356 95.08 C 118.797 95.08 116.467 94.671 114.361 93.844 C 112.257 93.028 110.44 91.837 108.908 90.283 C 107.376 88.73 106.189 86.832 105.338 84.598 C 104.494 82.357 104.072 79.82 104.072 76.993 L 104.072 76.575 C 104.072 73.974 104.518 71.6 105.41 69.45 C 106.301 67.304 107.527 65.478 109.079 63.97 C 110.635 62.462 112.452 61.288 114.531 60.439 C 116.614 59.595 118.843 59.173 121.22 59.173 C 124.149 59.173 126.665 59.687 128.768 60.717 C 130.873 61.745 132.608 63.043 133.979 64.622 C 135.352 66.197 136.359 67.933 137 69.832 C 137.638 71.726 137.956 73.562 137.956 75.347 L 137.956 79.937 L 112.989 79.937 Z M 121.153 66.983 C 118.955 66.983 117.174 67.545 115.801 68.662 C 114.427 69.784 113.537 71.076 113.126 72.538 L 129.176 72.538 C 128.905 70.939 128.045 69.614 126.604 68.561 C 125.164 67.51 123.348 66.983 121.153 66.983 Z M 70.174 68.92 L 49.743 68.92 L 49.743 95.073 L 40.97 95.073 L 40.97 68.92 L 32.823 68.92 L 32.823 60.573 L 40.97 60.573 L 40.97 53.477 C 40.97 51.485 41.64 49.803 42.984 48.435 C 44.331 47.068 46.006 46.383 48.001 46.383 L 70.283 46.383 L 70.283 54.733 L 51.621 54.733 C 50.369 54.733 49.743 55.424 49.743 56.816 L 49.743 60.573 L 70.174 60.573 L 70.174 68.92 Z M 92.212 46.383 L 92.212 87.095 L 102.799 87.095 L 102.799 95.08 L 72.577 95.073 L 72.577 87.118 L 83.442 87.105 L 83.442 54.733 L 72.577 54.733 L 72.577 46.383 L 92.212 46.383 Z M 70.283 124.266 C 69.494 128.348 67.629 131.638 64.677 134.145 C 61.731 136.647 57.796 137.897 52.875 137.897 C 50.321 137.897 47.944 137.507 45.738 136.717 C 43.533 135.928 41.615 134.794 39.994 133.31 C 38.369 131.821 37.092 129.99 36.165 127.815 C 35.233 125.635 34.772 123.153 34.772 120.37 L 34.772 119.538 C 34.772 116.755 35.233 114.25 36.165 112.024 C 37.092 109.798 38.38 107.895 40.028 106.322 C 41.677 104.743 43.603 103.541 45.809 102.702 C 48.011 101.87 50.369 101.453 52.875 101.453 C 57.704 101.453 61.612 102.702 64.61 105.208 C 67.603 107.71 69.494 111.005 70.283 115.084 L 61.648 117.311 C 61.37 115.273 60.489 113.508 59.002 112.024 C 57.515 110.539 55.428 109.798 52.738 109.798 C 51.484 109.798 50.298 110.032 49.186 110.494 C 48.072 110.956 47.097 111.618 46.258 112.477 C 45.423 113.337 44.763 114.379 44.275 115.606 C 43.787 116.835 43.544 118.213 43.544 119.745 L 43.544 120.162 C 43.544 121.693 43.787 123.051 44.275 124.231 C 44.763 125.414 45.423 126.4 46.258 127.189 C 47.097 127.975 48.072 128.567 49.186 128.96 C 50.298 129.355 51.484 129.553 52.738 129.553 C 55.428 129.553 57.482 128.879 58.897 127.533 C 60.314 126.189 61.233 124.383 61.648 122.109 L 70.283 124.266 Z M 82.745 112.161 C 82.745 113.276 83.326 114.074 84.484 114.561 C 85.644 115.051 87.759 115.457 90.82 115.782 C 94.346 116.152 97.23 117.207 99.456 118.945 C 101.683 120.682 102.799 123.106 102.799 126.214 L 102.799 126.631 C 102.799 130.063 101.542 132.797 99.037 134.839 C 96.529 136.879 93.005 137.897 88.454 137.897 C 85.762 137.897 83.463 137.554 81.559 136.854 C 79.655 136.159 78.076 135.292 76.826 134.245 C 75.573 133.204 74.608 132.045 73.935 130.77 C 73.26 129.493 72.81 128.256 72.577 127.052 L 80.652 124.406 C 81.026 125.889 81.806 127.189 82.988 128.303 C 84.171 129.411 85.992 129.968 88.454 129.968 C 90.634 129.968 92.134 129.635 92.945 128.96 C 93.758 128.287 94.165 127.56 94.165 126.767 C 94.165 126.306 94.058 125.877 93.848 125.485 C 93.643 125.091 93.259 124.718 92.703 124.369 C 92.145 124.021 91.39 123.732 90.438 123.501 C 89.486 123.268 88.291 123.083 86.851 122.946 C 82.951 122.618 79.853 121.612 77.559 119.917 C 75.26 118.225 74.109 115.735 74.109 112.439 L 74.109 112.024 C 74.109 110.307 74.48 108.802 75.224 107.503 C 75.968 106.206 76.94 105.103 78.151 104.2 C 79.355 103.297 80.75 102.611 82.325 102.147 C 83.905 101.686 85.53 101.453 87.198 101.453 C 89.382 101.453 91.275 101.72 92.874 102.249 C 94.476 102.786 95.834 103.48 96.952 104.34 C 98.063 105.197 98.964 106.147 99.665 107.189 C 100.361 108.233 100.894 109.242 101.265 110.216 L 93.328 113.415 C 92.911 112.161 92.192 111.181 91.166 110.459 C 90.149 109.739 88.828 109.381 87.198 109.381 C 85.714 109.381 84.601 109.647 83.856 110.18 C 83.115 110.714 82.745 111.376 82.745 112.161 Z M 117.906 112.161 C 117.906 113.276 118.487 114.074 119.647 114.561 C 120.807 115.051 122.921 115.457 125.982 115.782 C 129.512 116.152 132.39 117.207 134.615 118.945 C 136.847 120.682 137.956 123.106 137.956 126.214 L 137.956 126.631 C 137.956 130.063 136.708 132.797 134.199 134.839 C 131.691 136.879 128.166 137.897 123.614 137.897 C 120.924 137.897 118.625 137.554 116.724 136.854 C 114.817 136.159 113.238 135.292 111.988 134.245 C 110.734 133.204 109.77 132.045 109.095 130.77 C 108.424 129.493 107.972 128.256 107.738 127.052 L 115.817 124.406 C 116.187 125.889 116.965 127.189 118.149 128.303 C 119.331 129.411 121.154 129.968 123.614 129.968 C 125.798 129.968 127.293 129.635 128.107 128.96 C 128.922 128.287 129.327 127.56 129.327 126.767 C 129.327 126.306 129.22 125.877 129.012 125.485 C 128.8 125.091 128.423 124.718 127.862 124.369 C 127.308 124.021 126.553 123.732 125.601 123.501 C 124.65 123.268 123.451 123.083 122.014 122.946 C 118.113 122.618 115.013 121.612 112.719 119.917 C 110.419 118.225 109.271 115.735 109.271 112.439 L 109.271 112.024 C 109.271 110.307 109.644 108.802 110.386 107.503 C 111.128 106.206 112.101 105.103 113.308 104.2 C 114.519 103.297 115.91 102.611 117.488 102.147 C 119.063 101.686 120.691 101.453 122.363 101.453 C 124.544 101.453 126.435 101.72 128.034 102.249 C 129.636 102.786 130.996 103.48 132.113 104.34 C 133.222 105.197 134.13 106.147 134.826 107.189 C 135.523 108.233 136.058 109.242 136.427 110.216 L 128.488 113.415 C 128.071 112.161 127.351 111.181 126.333 110.459 C 125.307 109.739 123.986 109.381 122.363 109.381 C 120.878 109.381 119.762 109.647 119.02 110.18 C 118.275 110.714 117.906 111.376 117.906 112.161 Z" style="fill: rgb(255, 255, 255);"/>
</svg>