<?xml version="1.0" encoding="utf-8"?>
<svg viewBox="0 0 385 205" xmlns="http://www.w3.org/2000/svg">
  <defs>
    <radialGradient gradientUnits="userSpaceOnUse" cx="205.498" cy="0.001" r="102.499" id="gradient-2" gradientTransform="matrix(-1.989821, 1.989821, -3.205363, -3.205363, 614.405331, -408.899937)">
      <stop offset="0" style="stop-color: rgb(255, 255, 255);"/>
      <stop offset="0.225" style="stop-color: rgb(251, 111, 177);"/>
      <stop offset="1" style="stop-color: rgb(29, 29, 29);"/>
    </radialGradient>
    <radialGradient gradientUnits="userSpaceOnUse" cx="398.28" cy="188.807" r="86.692" id="gradient-0" gradientTransform="matrix(-1.310823, -2.356549, 1.926581, -1.071655, 476.233085, 1345.901124)">
      <stop offset="0" style="stop-color: rgb(29, 29, 29);"/>
      <stop offset="0.148" style="stop-color: rgb(29, 29, 29);"/>
      <stop offset="0.511" style="stop-color: rgb(255, 112, 179);"/>
      <stop offset="0.666" style="stop-color: rgb(255, 255, 255);"/>
      <stop offset="1" style="stop-color: rgb(255, 255, 255);"/>
    </radialGradient>
  </defs>
  <rect width="204.999" height="204.999" style="stroke-linecap: square; stroke-width: 50px; fill: url('#gradient-2');" x="0.499" y="0.001"/>
  <path d="M 190.105 131.639 L 190.105 129.819 C 189.397 120.815 185.451 116.313 178.269 116.313 C 174.729 116.313 171.594 117.603 168.862 120.183 C 166.13 122.763 164.31 126.582 163.4 131.639 L 190.105 131.639 Z M 206.038 154.248 L 206.038 172.76 C 200.777 176.199 192.735 177.919 181.911 177.919 C 169.267 177.919 159.43 174.251 152.398 166.919 C 145.367 159.584 141.852 150.151 141.852 138.619 C 141.852 126.378 145.267 116.794 152.095 109.866 C 158.923 102.936 167.345 99.471 177.359 99.471 C 187.678 99.471 195.821 102.481 201.789 108.499 C 207.757 114.518 210.741 123.496 210.741 135.432 C 210.741 137.759 210.336 142.205 209.528 147.869 L 164.31 147.869 C 165.827 152.118 168.457 154.956 172.2 157.283 C 175.942 159.61 180.444 160.772 185.705 160.772 C 193.494 160.772 200.272 158.598 206.038 154.248 Z M 114.82 177.16 L 114.82 69.882 L 136.973 69.882 L 136.973 177.16 L 114.82 177.16 Z M 109.474 69.882 L 109.428 88.53 C 96.172 88.53 90.462 88.564 90.462 98.545 L 90.462 131.63 L 104.876 131.63 L 104.876 147.866 L 90.462 147.866 L 90.462 177.16 L 68.459 177.16 L 68.459 147.866 L 58.445 147.866 L 58.445 131.63 L 68.459 131.63 L 68.459 98.545 C 68.459 89.238 69.866 83.202 75.076 78.044 C 80.285 72.885 84.89 69.882 109.474 69.882 Z" style="fill: rgb(255, 255, 255);"/>
  <path d="M 233.574 138.923 C 233.978 145.7 236.001 150.96 239.643 154.703 C 243.285 158.445 248.09 160.317 254.059 160.317 C 260.431 160.317 266.551 158.547 272.418 155.007 L 272.418 173.519 C 266.45 176.756 259.268 178.375 250.872 178.375 C 239.34 178.375 229.831 174.708 222.345 167.374 C 214.86 160.039 211.117 150.556 211.117 138.923 C 211.32 127.391 215.062 117.857 222.345 110.321 C 229.629 102.784 239.593 99.015 252.237 99.015 C 260.026 99.015 266.753 100.482 272.418 103.416 L 272.418 122.383 C 267.056 119.045 261.089 117.376 254.514 117.376 C 248.343 117.376 243.335 119.222 239.492 122.915 C 235.648 126.607 233.675 131.942 233.574 138.923 Z M 325.65 102.506 L 325.65 121.473 C 320.288 118.336 314.016 116.769 306.834 116.769 C 304.204 116.769 302.181 117.3 300.764 118.363 C 299.348 119.425 298.64 120.765 298.64 122.383 C 298.64 123.294 298.893 124.154 299.399 124.963 C 299.905 125.772 300.739 126.531 301.902 127.239 C 303.065 127.947 304.179 128.579 305.241 129.135 C 306.303 129.692 307.769 130.375 309.641 131.184 C 311.513 131.993 313.005 132.702 314.118 133.309 C 318.77 135.736 322.513 138.544 325.345 141.73 C 328.178 144.917 329.594 148.988 329.594 153.945 C 329.594 161.532 326.863 167.399 321.4 171.546 C 315.938 175.693 308.705 177.768 299.702 177.768 C 290.395 177.768 282.606 176.2 276.334 173.063 L 276.334 153.338 C 283.315 158.194 290.7 160.621 298.489 160.621 C 304.052 160.621 306.834 158.851 306.834 155.31 C 306.834 154.4 306.581 153.54 306.076 152.73 C 305.569 151.922 304.709 151.163 303.496 150.455 C 302.282 149.747 301.169 149.165 300.157 148.71 C 299.145 148.255 297.679 147.623 295.757 146.813 C 293.835 146.003 292.369 145.346 291.357 144.841 C 281.14 139.984 276.031 132.702 276.031 122.99 C 276.031 115.504 278.889 109.688 284.605 105.541 C 290.32 101.394 297.427 99.319 305.924 99.319 C 313.814 99.319 320.388 100.382 325.65 102.506 Z M 380.555 102.506 L 380.555 121.473 C 375.194 118.336 368.923 116.769 361.741 116.769 C 359.11 116.769 357.087 117.3 355.671 118.363 C 354.254 119.425 353.547 120.765 353.547 122.383 C 353.547 123.294 353.799 124.154 354.305 124.963 C 354.811 125.772 355.646 126.531 356.809 127.239 C 357.972 127.947 359.084 128.579 360.147 129.135 C 361.209 129.692 362.676 130.375 364.548 131.184 C 366.419 131.993 367.911 132.702 369.023 133.309 C 373.676 135.736 377.42 138.544 380.252 141.73 C 383.085 144.917 384.501 148.988 384.501 153.945 C 384.501 161.532 381.77 167.399 376.307 171.546 C 370.845 175.693 363.611 177.768 354.609 177.768 C 345.302 177.768 337.513 176.2 331.241 173.063 L 331.241 153.338 C 338.221 158.194 345.605 160.621 353.395 160.621 C 358.959 160.621 361.741 158.851 361.741 155.31 C 361.741 154.4 361.488 153.54 360.981 152.73 C 360.476 151.922 359.616 151.163 358.402 150.455 C 357.189 149.747 356.076 149.165 355.064 148.71 C 354.052 148.255 352.585 147.623 350.663 146.813 C 348.741 146.003 347.275 145.346 346.263 144.841 C 336.046 139.984 330.937 132.702 330.937 122.99 C 330.937 115.504 333.795 109.688 339.511 105.541 C 345.227 101.394 352.332 99.319 360.829 99.319 C 368.72 99.319 375.295 100.382 380.555 102.506 Z" style="fill: url('#gradient-0');"/>
</svg>