<?xml version="1.0" encoding="utf-8"?>
<svg viewBox="0 0 300 300" xmlns="http://www.w3.org/2000/svg">
  <defs>
    <linearGradient gradientUnits="userSpaceOnUse" x1="75" y1="0" x2="75" y2="150" id="gradient-2" gradientTransform="matrix(2.526964, 2.567839, -2, 2.000001, 110.478127, -192.588028)">
      <stop offset="0" style="stop-color: rgb(10, 255, 210);"/>
      <stop offset="1" style="stop-color: rgb(133, 133, 255);"/>
    </linearGradient>
    <linearGradient gradientUnits="userSpaceOnUse" x1="38.042" y1="17.118" x2="38.042" y2="282.882" id="gradient-0" gradientTransform="matrix(0.705529, 0.708681, -1.128821, 1.128821, 292.259218, -46.282965)">
      <stop offset="0" style="stop-color: rgb(99.216% 100% 68.627%)"/>
      <stop offset="1" style="stop-color: rgb(255, 119, 235);"/>
    </linearGradient>
    <linearGradient gradientUnits="userSpaceOnUse" x1="149.92" y1="0" x2="149.92" y2="300" id="gradient-1" gradientTransform="matrix(0.994752, 0.587571, -1, 1, 150.866824, -88.088607)">
      <stop offset="0" style="stop-color: rgb(3.9216% 100% 82.353%)"/>
      <stop offset="1" style="stop-color: rgb(133, 133, 255);"/>
    </linearGradient>
    <linearGradient gradientUnits="userSpaceOnUse" x1="150.113" y1="17.118" x2="150.113" y2="282.882" id="gradient-4" gradientTransform="matrix(0.314466, 0.794188, -1.235793, 1.128821, 288.161516, -138.541092)">
      <stop offset="0" style="stop-color: rgb(99.216% 100% 68.627%)"/>
      <stop offset="1" style="stop-color: rgb(255, 119, 235);"/>
    </linearGradient>
  </defs>
  <rect width="300" height="300" style="stroke-linecap: square; stroke-width: 50px; fill: url('#gradient-2'); fill-opacity: 0.5;"/>
  <path d="M 17.118 17.118 L 38.518 17.118 L 38.518 282.882 L 17.118 282.882 L 17.118 17.118 Z M 261.482 17.118 L 282.882 17.118 L 282.882 282.882 L 261.482 282.882 L 261.482 17.118 Z" style="stroke-linecap: square; stroke-width: 50px; fill: url('#gradient-0');"/>
  <rect width="192.285" height="300" style="stroke-linecap: square; stroke-width: 50px; fill: url('#gradient-1'); fill-opacity: 0.5;" x="53.777"/>
  <path d="M 68.499 241.709 L 231.501 241.709 L 231.501 282.882 L 68.499 282.882 L 68.499 241.709 Z M 68.499 17.118 L 231.501 17.118 L 231.501 58.291 L 68.499 58.291 L 68.499 17.118 Z" style="stroke-linecap: square; stroke-width: 50px; fill: url('#gradient-4');"/>
</svg>