<?xml version="1.0" encoding="utf-8"?>
<svg viewBox="0 0 300 300" xmlns="http://www.w3.org/2000/svg">
  <defs>
    <linearGradient gradientUnits="userSpaceOnUse" x1="150" y1="56.142" x2="150" y2="238.261" id="gradient-0" gradientTransform="matrix(-0.933141, -0.948139, 1.647275, -1.647274, 47.489796, 534.702126)">
      <stop offset="0" style="stop-color: rgb(163, 163, 255);"/>
      <stop offset="1" style="stop-color: rgb(95, 255, 226);"/>
    </linearGradient>
  </defs>
  <rect width="300" height="300" style="stroke-linecap: square; stroke-width: 50px; fill: rgb(235, 240, 239);"/>
  <path d="M 41.567 183.739 L 258.433 183.739 C 265.005 183.739 270.332 189.067 270.332 195.639 L 270.332 195.64 C 270.332 202.212 265.005 207.539 258.433 207.539 L 41.567 207.539 C 34.995 207.539 29.668 202.212 29.668 195.64 L 29.668 195.639 C 29.668 189.067 34.995 183.739 41.567 183.739 Z M 213.732 133.135 L 258.433 133.135 C 265.005 133.135 270.332 138.463 270.332 145.035 L 270.332 145.036 C 270.332 151.608 265.005 156.935 258.433 156.935 L 213.732 156.935 C 207.16 156.935 201.833 151.608 201.833 145.036 L 201.833 145.035 C 201.833 138.463 207.16 133.135 213.732 133.135 Z M 176.456 234.343 L 258.433 234.343 C 265.005 234.343 270.332 239.671 270.332 246.243 L 270.332 246.244 C 270.332 252.816 265.005 258.143 258.433 258.143 L 176.456 258.143 C 169.884 258.143 164.557 252.816 164.557 246.244 L 164.557 246.243 C 164.557 239.671 169.884 234.343 176.456 234.343 Z M 41.567 133.135 L 90.376 133.135 C 96.948 133.135 102.275 138.463 102.275 145.035 L 102.275 145.036 C 102.275 151.608 96.948 156.935 90.376 156.935 L 41.567 156.935 C 34.995 156.935 29.668 151.608 29.668 145.036 L 29.668 145.035 C 29.668 138.463 34.995 133.135 41.567 133.135 Z M 41.567 234.343 L 138.496 234.343 C 145.068 234.343 150.395 239.671 150.395 246.243 L 150.395 246.244 C 150.395 252.816 145.068 258.143 138.496 258.143 L 41.567 258.143 C 34.995 258.143 29.668 252.816 29.668 246.244 L 29.668 246.243 C 29.668 239.671 34.995 234.343 41.567 234.343 Z M 127.11 133.135 L 176.513 133.135 C 183.085 133.135 188.412 138.463 188.412 145.035 L 188.412 145.036 C 188.412 151.608 183.085 156.935 176.513 156.935 L 127.11 156.935 C 120.538 156.935 115.21 151.608 115.21 145.036 L 115.21 145.035 C 115.21 138.463 120.538 133.135 127.11 133.135 Z M 48.431 36.26 L 176.224 36.26 C 186.586 36.26 194.986 44.66 194.987 55.022 C 194.987 65.385 186.587 73.786 176.224 73.786 L 48.431 73.786 C 38.068 73.786 29.668 65.385 29.668 55.022 C 29.669 44.66 38.069 36.26 48.431 36.26 Z" style="stroke-linecap: square; stroke-width: 50px; fill: url('#gradient-0');"/>
</svg>