<?xml version="1.0" encoding="utf-8"?>
<svg viewBox="0 0 500 500" xmlns="http://www.w3.org/2000/svg">
  <style>
    :root {
      --color-bg-0: #FFC2E0;
      --color-bg-1: #99A0FF;
      --color-bg-2: #C2C6FF;
      --color-fg: #FFFFFF;
    }
    @media (prefers-color-scheme: dark) {
      :root {
        --color-bg-0: #FFADD6;
        --color-bg-1: #707AFF;
        --color-bg-2: #ADB3FF;
      }
    }
  </style>
  <defs>
    <linearGradient gradientUnits="userSpaceOnUse" x1="250" y1="0.495" x2="250" y2="499.505" id="gradient-0" gradientTransform="matrix(1.000363, 0, 0, 1.000363, -10.141711, -20.737887)">
      <stop offset="0" style="stop-color: var(--color-bg-0);"/>
      <stop offset="1" style="stop-color: var(--color-bg-2);"/>
    </linearGradient>
    <linearGradient gradientUnits="userSpaceOnUse" x1="250" y1="0.495" x2="250" y2="499.505" id="gradient-1" gradientTransform="matrix(1.000363, 0, 0, 1.000363, -2.14175, -11.737457)">
      <stop offset="0" style="stop-color: var(--color-bg-2);"/>
      <stop offset="1" style="stop-color: var(--color-bg-1);"/>
    </linearGradient>
    <linearGradient gradientUnits="userSpaceOnUse" x1="250" y1="0.495" x2="250" y2="499.505" id="gradient-2" gradientTransform="matrix(1.208316, 0, 0, 1.208316, -42.027845, -104.054705)">
      <stop offset="0" style="stop-color: var(--color-bg-0);"/>
      <stop offset="1" style="stop-color: var(--color-bg-1);"/>
    </linearGradient>
  </defs>
  <rect width="479.898" height="478.948" style="fill: url('#gradient-0'); fill-opacity: 0.25;"/>
  <rect width="479.898" height="478.948" style="fill-opacity: 0.5; fill: url('#gradient-1');" y="8" x="8"/>
  <rect width="479.898" height="478.948" style="fill-opacity: 0.75; fill: url('#gradient-2');" y="16" x="16"/>
  <g transform="matrix(0.949548, 0, 0, 0.949548, 24.987743, 22.087841)" style="">
    <path d="M 334.494 233.567 C 338.185 246.912 348.194 253.585 364.521 253.585 C 375.027 253.585 382.977 250.036 388.372 242.937 L 410.52 255.714 C 400.014 270.905 384.539 278.501 364.095 278.501 C 346.49 278.501 332.364 273.177 321.716 262.529 C 311.068 251.881 305.744 238.465 305.744 222.28 C 305.744 206.237 310.997 192.856 321.503 182.137 C 332.009 171.419 345.496 166.059 361.965 166.059 C 377.582 166.059 390.466 171.454 400.617 182.244 C 410.768 193.034 415.844 206.379 415.844 222.28 C 415.844 225.829 415.489 229.592 414.779 233.567 L 334.494 233.567 Z M 334.068 212.271 L 388.372 212.271 C 386.81 205.03 383.58 199.636 378.682 196.086 C 373.784 192.537 368.212 190.762 361.965 190.762 C 354.583 190.762 348.478 192.643 343.651 196.406 C 338.824 200.168 335.629 205.456 334.068 212.271 Z M 260.019 128.457 L 287.44 128.457 L 287.44 275.519 L 260.019 275.519 L 260.019 128.457 Z M 241.477 128.54 C 241.576 128.54 241.576 154.301 241.477 154.301 C 226.427 154.483 218.904 161.953 218.904 175.582 L 218.904 176.647 L 236.579 176.647 L 236.579 203.053 L 218.904 203.053 L 218.904 275.519 L 191.433 275.519 L 191.433 203.053 L 176.099 203.053 L 176.099 176.647 L 191.433 176.647 L 191.433 175.582 C 191.433 145.911 207.845 128.457 241.477 128.54 Z M 361.334 341.703 C 361.334 344.543 363.215 346.85 366.977 348.624 C 370.74 350.399 375.318 351.961 380.713 353.309 C 386.108 354.658 391.503 356.362 396.898 358.42 C 402.293 360.479 406.871 363.922 410.634 368.749 C 414.396 373.576 416.277 379.61 416.277 386.85 C 416.277 397.782 412.195 406.194 404.032 412.086 C 395.869 417.978 385.682 420.924 373.473 420.924 C 351.609 420.924 336.702 412.476 328.751 395.582 L 352.603 382.165 C 355.726 391.393 362.683 396.007 373.473 396.007 C 383.269 396.007 388.167 392.955 388.167 386.85 C 388.167 384.011 386.286 381.704 382.523 379.929 C 378.761 378.154 374.182 376.557 368.787 375.138 C 363.393 373.718 357.998 371.943 352.603 369.814 C 347.208 367.684 342.629 364.312 338.867 359.698 C 335.105 355.084 333.223 349.299 333.223 342.342 C 333.223 331.836 337.092 323.566 344.83 317.532 C 352.567 311.499 362.186 308.482 373.685 308.482 C 382.346 308.482 390.225 310.434 397.324 314.338 C 404.422 318.242 410.03 323.815 414.147 331.055 L 390.722 343.833 C 387.315 336.592 381.636 332.972 373.685 332.972 C 370.136 332.972 367.19 333.753 364.848 335.314 C 362.505 336.876 361.334 339.006 361.334 341.703 Z M 266.621 341.703 C 266.621 344.543 268.502 346.85 272.264 348.624 C 276.027 350.399 280.605 351.961 286 353.309 C 291.395 354.658 296.79 356.362 302.185 358.42 C 307.58 360.479 312.158 363.922 315.921 368.749 C 319.683 373.576 321.564 379.61 321.564 386.85 C 321.564 397.782 317.482 406.194 309.319 412.086 C 301.156 417.978 290.969 420.924 278.76 420.924 C 256.896 420.924 241.989 412.476 234.038 395.582 L 257.89 382.165 C 261.013 391.393 267.97 396.007 278.76 396.007 C 288.556 396.007 293.454 392.955 293.454 386.85 C 293.454 384.011 291.572 381.704 287.81 379.929 C 284.048 378.154 279.469 376.557 274.074 375.138 C 268.68 373.718 263.285 371.943 257.89 369.814 C 252.495 367.684 247.916 364.312 244.154 359.698 C 240.392 355.084 238.51 349.299 238.51 342.342 C 238.51 331.836 242.379 323.566 250.117 317.532 C 257.854 311.499 267.473 308.482 278.972 308.482 C 287.633 308.482 295.512 310.434 302.611 314.338 C 309.709 318.242 315.317 323.815 319.434 331.055 L 296.009 343.833 C 292.602 336.592 286.923 332.972 278.972 332.972 C 275.423 332.972 272.477 333.753 270.135 335.314 C 267.792 336.876 266.621 339.006 266.621 341.703 Z M 176.623 420.924 C 160.581 420.924 147.2 415.529 136.481 404.739 C 125.762 393.949 120.403 380.604 120.403 364.703 C 120.403 348.802 125.762 335.456 136.481 324.667 C 147.2 313.877 160.581 308.482 176.623 308.482 C 186.987 308.482 196.428 310.966 204.947 315.935 C 213.465 320.904 219.925 327.577 224.326 335.953 L 200.688 349.796 C 198.558 345.394 195.328 341.916 190.998 339.361 C 186.668 336.805 181.805 335.527 176.41 335.527 C 168.176 335.527 161.361 338.26 155.966 343.726 C 150.572 349.192 147.874 356.184 147.874 364.703 C 147.874 373.079 150.572 380 155.966 385.466 C 161.361 390.932 168.176 393.665 176.41 393.665 C 181.947 393.665 186.881 392.423 191.211 389.938 C 195.541 387.454 198.771 384.011 200.901 379.61 L 224.752 393.239 C 220.067 401.615 213.465 408.324 204.947 413.364 C 196.428 418.404 186.987 420.924 176.623 420.924 Z" style="fill: var(--color-fg); fill-opacity: 0.25;"/>
    <path d="M 343.285 241.592 C 346.976 254.937 356.985 261.61 373.312 261.61 C 383.818 261.61 391.768 258.061 397.163 250.962 L 419.311 263.739 C 408.805 278.93 393.33 286.526 372.886 286.526 C 355.281 286.526 341.155 281.202 330.507 270.554 C 319.859 259.906 314.535 246.49 314.535 230.305 C 314.535 214.262 319.788 200.881 330.294 190.162 C 340.8 179.444 354.287 174.084 370.756 174.084 C 386.373 174.084 399.257 179.479 409.408 190.269 C 419.559 201.059 424.635 214.404 424.635 230.305 C 424.635 233.854 424.28 237.617 423.57 241.592 L 343.285 241.592 Z M 342.859 220.296 L 397.163 220.296 C 395.601 213.055 392.371 207.661 387.473 204.111 C 382.575 200.562 377.003 198.787 370.756 198.787 C 363.374 198.787 357.269 200.668 352.442 204.431 C 347.615 208.193 344.42 213.481 342.859 220.296 Z M 268.81 136.482 L 296.231 136.482 L 296.231 283.544 L 268.81 283.544 L 268.81 136.482 Z M 250.268 136.565 C 250.367 136.565 250.367 162.326 250.268 162.326 C 235.218 162.508 227.695 169.978 227.695 183.607 L 227.695 184.672 L 245.37 184.672 L 245.37 211.078 L 227.695 211.078 L 227.695 283.544 L 200.224 283.544 L 200.224 211.078 L 184.89 211.078 L 184.89 184.672 L 200.224 184.672 L 200.224 183.607 C 200.224 153.936 216.636 136.482 250.268 136.565 Z M 370.125 349.728 C 370.125 352.568 372.006 354.875 375.768 356.649 C 379.531 358.424 384.109 359.986 389.504 361.334 C 394.899 362.683 400.294 364.387 405.689 366.445 C 411.084 368.504 415.662 371.947 419.425 376.774 C 423.187 381.601 425.068 387.635 425.068 394.875 C 425.068 405.807 420.986 414.219 412.823 420.111 C 404.66 426.003 394.473 428.949 382.264 428.949 C 360.4 428.949 345.493 420.501 337.542 403.607 L 361.394 390.19 C 364.517 399.418 371.474 404.032 382.264 404.032 C 392.06 404.032 396.958 400.98 396.958 394.875 C 396.958 392.036 395.077 389.729 391.314 387.954 C 387.552 386.179 382.973 384.582 377.578 383.163 C 372.184 381.743 366.789 379.968 361.394 377.839 C 355.999 375.709 351.42 372.337 347.658 367.723 C 343.896 363.109 342.014 357.324 342.014 350.367 C 342.014 339.861 345.883 331.591 353.621 325.557 C 361.358 319.524 370.977 316.507 382.476 316.507 C 391.137 316.507 399.016 318.459 406.115 322.363 C 413.213 326.267 418.821 331.84 422.938 339.08 L 399.513 351.858 C 396.106 344.617 390.427 340.997 382.476 340.997 C 378.927 340.997 375.981 341.778 373.639 343.339 C 371.296 344.901 370.125 347.031 370.125 349.728 Z M 275.412 349.728 C 275.412 352.568 277.293 354.875 281.055 356.649 C 284.818 358.424 289.396 359.986 294.791 361.334 C 300.186 362.683 305.581 364.387 310.976 366.445 C 316.371 368.504 320.949 371.947 324.712 376.774 C 328.474 381.601 330.355 387.635 330.355 394.875 C 330.355 405.807 326.273 414.219 318.11 420.111 C 309.947 426.003 299.76 428.949 287.551 428.949 C 265.687 428.949 250.78 420.501 242.829 403.607 L 266.681 390.19 C 269.804 399.418 276.761 404.032 287.551 404.032 C 297.347 404.032 302.245 400.98 302.245 394.875 C 302.245 392.036 300.363 389.729 296.601 387.954 C 292.839 386.179 288.26 384.582 282.865 383.163 C 277.471 381.743 272.076 379.968 266.681 377.839 C 261.286 375.709 256.707 372.337 252.945 367.723 C 249.183 363.109 247.301 357.324 247.301 350.367 C 247.301 339.861 251.17 331.591 258.908 325.557 C 266.645 319.524 276.264 316.507 287.763 316.507 C 296.424 316.507 304.303 318.459 311.402 322.363 C 318.5 326.267 324.108 331.84 328.225 339.08 L 304.8 351.858 C 301.393 344.617 295.714 340.997 287.763 340.997 C 284.214 340.997 281.268 341.778 278.926 343.339 C 276.583 344.901 275.412 347.031 275.412 349.728 Z M 185.414 428.949 C 169.372 428.949 155.991 423.554 145.272 412.764 C 134.553 401.974 129.194 388.629 129.194 372.728 C 129.194 356.827 134.553 343.481 145.272 332.692 C 155.991 321.902 169.372 316.507 185.414 316.507 C 195.778 316.507 205.219 318.991 213.738 323.96 C 222.256 328.929 228.716 335.602 233.117 343.978 L 209.479 357.821 C 207.349 353.419 204.119 349.941 199.789 347.386 C 195.459 344.83 190.596 343.552 185.201 343.552 C 176.967 343.552 170.152 346.285 164.757 351.751 C 159.363 357.217 156.665 364.209 156.665 372.728 C 156.665 381.104 159.363 388.025 164.757 393.491 C 170.152 398.957 176.967 401.69 185.201 401.69 C 190.738 401.69 195.672 400.448 200.002 397.963 C 204.332 395.479 207.562 392.036 209.692 387.635 L 233.543 401.264 C 228.858 409.64 222.256 416.349 213.738 421.389 C 205.219 426.429 195.778 428.949 185.414 428.949 Z" style="fill: var(--color-fg); fill-opacity: 0.5;"/>
    <path d="M 352.494 250.567 C 356.185 263.912 366.194 270.585 382.521 270.585 C 393.027 270.585 400.977 267.036 406.372 259.937 L 428.52 272.714 C 418.014 287.905 402.539 295.501 382.095 295.501 C 364.49 295.501 350.364 290.177 339.716 279.529 C 329.068 268.881 323.744 255.465 323.744 239.28 C 323.744 223.237 328.997 209.856 339.503 199.137 C 350.009 188.419 363.496 183.059 379.965 183.059 C 395.582 183.059 408.466 188.454 418.617 199.244 C 428.768 210.034 433.844 223.379 433.844 239.28 C 433.844 242.829 433.489 246.592 432.779 250.567 L 352.494 250.567 Z M 352.068 229.271 L 406.372 229.271 C 404.81 222.03 401.58 216.636 396.682 213.086 C 391.784 209.537 386.212 207.762 379.965 207.762 C 372.583 207.762 366.478 209.643 361.651 213.406 C 356.824 217.168 353.629 222.456 352.068 229.271 Z M 278.019 145.457 L 305.44 145.457 L 305.44 292.519 L 278.019 292.519 L 278.019 145.457 Z M 259.477 145.54 C 259.576 145.54 259.576 171.301 259.477 171.301 C 244.427 171.483 236.904 178.953 236.904 192.582 L 236.904 193.647 L 254.579 193.647 L 254.579 220.053 L 236.904 220.053 L 236.904 292.519 L 209.433 292.519 L 209.433 220.053 L 194.099 220.053 L 194.099 193.647 L 209.433 193.647 L 209.433 192.582 C 209.433 162.911 225.845 145.457 259.477 145.54 Z M 379.334 358.703 C 379.334 361.543 381.215 363.85 384.977 365.624 C 388.74 367.399 393.318 368.961 398.713 370.309 C 404.108 371.658 409.503 373.362 414.898 375.42 C 420.293 377.479 424.871 380.922 428.634 385.749 C 432.396 390.576 434.277 396.61 434.277 403.85 C 434.277 414.782 430.195 423.194 422.032 429.086 C 413.869 434.978 403.682 437.924 391.473 437.924 C 369.609 437.924 354.702 429.476 346.751 412.582 L 370.603 399.165 C 373.726 408.393 380.683 413.007 391.473 413.007 C 401.269 413.007 406.167 409.955 406.167 403.85 C 406.167 401.011 404.286 398.704 400.523 396.929 C 396.761 395.154 392.182 393.557 386.787 392.138 C 381.393 390.718 375.998 388.943 370.603 386.814 C 365.208 384.684 360.629 381.312 356.867 376.698 C 353.105 372.084 351.223 366.299 351.223 359.342 C 351.223 348.836 355.092 340.566 362.83 334.532 C 370.567 328.499 380.186 325.482 391.685 325.482 C 400.346 325.482 408.225 327.434 415.324 331.338 C 422.422 335.242 428.03 340.815 432.147 348.055 L 408.722 360.833 C 405.315 353.592 399.636 349.972 391.685 349.972 C 388.136 349.972 385.19 350.753 382.848 352.314 C 380.505 353.876 379.334 356.006 379.334 358.703 Z M 284.621 358.703 C 284.621 361.543 286.502 363.85 290.264 365.624 C 294.027 367.399 298.605 368.961 304 370.309 C 309.395 371.658 314.79 373.362 320.185 375.42 C 325.58 377.479 330.158 380.922 333.921 385.749 C 337.683 390.576 339.564 396.61 339.564 403.85 C 339.564 414.782 335.482 423.194 327.319 429.086 C 319.156 434.978 308.969 437.924 296.76 437.924 C 274.896 437.924 259.989 429.476 252.038 412.582 L 275.89 399.165 C 279.013 408.393 285.97 413.007 296.76 413.007 C 306.556 413.007 311.454 409.955 311.454 403.85 C 311.454 401.011 309.572 398.704 305.81 396.929 C 302.048 395.154 297.469 393.557 292.074 392.138 C 286.68 390.718 281.285 388.943 275.89 386.814 C 270.495 384.684 265.916 381.312 262.154 376.698 C 258.392 372.084 256.51 366.299 256.51 359.342 C 256.51 348.836 260.379 340.566 268.117 334.532 C 275.854 328.499 285.473 325.482 296.972 325.482 C 305.633 325.482 313.512 327.434 320.611 331.338 C 327.709 335.242 333.317 340.815 337.434 348.055 L 314.009 360.833 C 310.602 353.592 304.923 349.972 296.972 349.972 C 293.423 349.972 290.477 350.753 288.135 352.314 C 285.792 353.876 284.621 356.006 284.621 358.703 Z M 194.623 437.924 C 178.581 437.924 165.2 432.529 154.481 421.739 C 143.762 410.949 138.403 397.604 138.403 381.703 C 138.403 365.802 143.762 352.456 154.481 341.667 C 165.2 330.877 178.581 325.482 194.623 325.482 C 204.987 325.482 214.428 327.966 222.947 332.935 C 231.465 337.904 237.925 344.577 242.326 352.953 L 218.688 366.796 C 216.558 362.394 213.328 358.916 208.998 356.361 C 204.668 353.805 199.805 352.527 194.41 352.527 C 186.176 352.527 179.361 355.26 173.966 360.726 C 168.572 366.192 165.874 373.184 165.874 381.703 C 165.874 390.079 168.572 397 173.966 402.466 C 179.361 407.932 186.176 410.665 194.41 410.665 C 199.947 410.665 204.881 409.423 209.211 406.938 C 213.541 404.454 216.771 401.011 218.901 396.61 L 242.752 410.239 C 238.067 418.615 231.465 425.324 222.947 430.364 C 214.428 435.404 204.987 437.924 194.623 437.924 Z" style="fill: var(--color-fg);"/>
  </g>
</svg>