<?xml version="1.0" encoding="utf-8"?>
<svg viewBox="0 0 300 277" xmlns="http://www.w3.org/2000/svg">
  <style>
    :root {
      --fg-0: #747DFF80;
      --fg-1: #A3A9FF80;
      --fg-2: #99FFFAB0;
      --fg-3: #6BFFF7B0;
    }
    @media (prefers-color-scheme: dark) {
      :root {
        --fg-0: #646BAD80;
        --fg-1: #898EC080;
        --fg-2: #41C2B6A0;
        --fg-3: #6ED1C9A0;
      }
  </style>
  <defs>
    <linearGradient gradientUnits="userSpaceOnUse" x1="150" y1="56.142" x2="150" y2="238.261" id="gradient-0" gradientTransform="matrix(-1.172167, -1.187206, 2.060331, -2.060332, 22.541335, 623.158544)">
      <stop offset="0" style="stop-color: var(--fg-0);"/>
      <stop offset="1" style="stop-color: var(--fg-1);"/>
    </linearGradient>
  </defs>
  <path d="M 23.389 0 L 182.69 0 C 195.606 0 206.077 10.47 206.079 23.386 C 206.079 36.306 195.607 46.777 182.69 46.777 L 23.389 46.777 C 10.471 46.777 0 36.306 0 23.386 C 0.001 10.47 10.473 0 23.389 0 Z M 14.833 183.84 L 285.168 183.84 C 293.359 183.84 300 190.481 300 198.674 L 300 198.675 C 300 206.868 293.359 213.508 285.168 213.508 L 14.833 213.508 C 6.641 213.508 0 206.868 0 198.675 L 0 198.674 C 0 190.481 6.641 183.84 14.833 183.84 Z M 14.833 120.759 L 235.218 120.759 C 243.411 120.759 250.052 127.401 250.052 135.593 L 250.052 135.594 C 250.052 143.785 243.411 150.428 235.218 150.428 L 14.833 150.428 C 6.641 150.428 0 143.785 0 135.594 L 0 135.593 C 0 127.401 6.641 120.759 14.833 120.759 Z M 14.833 246.921 L 191.246 246.921 C 199.439 246.921 206.079 253.561 206.079 261.754 L 206.079 261.755 C 206.079 269.947 199.439 276.588 191.246 276.588 L 14.833 276.588 C 6.641 276.588 0 269.947 0 261.755 L 0 261.754 C 0 253.561 6.641 246.921 14.833 246.921 Z" style="stroke-linecap: square; stroke-width: 50px; fill: url('#gradient-0');"/>
</svg>