<?xml version="1.0" encoding="utf-8"?>
<svg viewBox="0 0 300 277" xmlns="http://www.w3.org/2000/svg">
  <style>
    :root {
      --fg-0: #FFA3D1;
      --fg-1: #C88BD9;
      --fg-2: #BDF5FC;
      --fg-3: #A8F7DE;
    }
  </style>
  <defs>
    <linearGradient gradientUnits="userSpaceOnUse" x1="150" y1="56.142" x2="150" y2="238.261" id="gradient-0" gradientTransform="matrix(-1.163207, -1.181903, 2.053411, -2.05341, 22.215893, 621.538269)">
      <stop offset="0" style="stop-color: var(--fg-0);"/>
      <stop offset="1" style="stop-color: var(--fg-1);"/>
    </linearGradient>
  </defs>
  <path d="M 14.833 184.046 L 285.167 184.046 C 293.36 184.046 300 190.688 300 198.88 L 300 198.881 C 300 207.074 293.36 213.714 285.167 213.714 L 14.833 213.714 C 6.64 213.714 0 207.074 0 198.881 L 0 198.88 C 0 190.688 6.64 184.046 14.833 184.046 Z M 229.445 120.966 L 285.167 120.966 C 293.36 120.966 300 127.607 300 135.8 L 300 135.801 C 300 143.993 293.36 150.633 285.167 150.633 L 229.445 150.633 C 221.253 150.633 214.613 143.993 214.613 135.801 L 214.613 135.8 C 214.613 127.607 221.253 120.966 229.445 120.966 Z M 182.979 247.127 L 285.167 247.127 C 293.36 247.127 300 253.768 300 261.96 L 300 261.962 C 300 270.154 293.36 276.794 285.167 276.794 L 182.979 276.794 C 174.786 276.794 168.146 270.154 168.146 261.962 L 168.146 261.96 C 168.146 253.768 174.786 247.127 182.979 247.127 Z M 14.833 120.966 L 75.676 120.966 C 83.868 120.966 90.508 127.607 90.508 135.8 L 90.508 135.801 C 90.508 143.993 83.868 150.633 75.676 150.633 L 14.833 150.633 C 6.64 150.633 0 143.993 0 135.801 L 0 135.8 C 0 127.607 6.64 120.966 14.833 120.966 Z M 14.833 247.127 L 135.66 247.127 C 143.852 247.127 150.492 253.768 150.492 261.96 L 150.492 261.962 C 150.492 270.154 143.852 276.794 135.66 276.794 L 14.833 276.794 C 6.64 276.794 0 270.154 0 261.962 L 0 261.96 C 0 253.768 6.64 247.127 14.833 247.127 Z M 121.466 120.966 L 183.05 120.966 C 191.242 120.966 197.882 127.607 197.882 135.8 L 197.882 135.801 C 197.882 143.993 191.242 150.633 183.05 150.633 L 121.466 150.633 C 113.274 150.633 106.632 143.993 106.632 135.801 L 106.632 135.8 C 106.632 127.607 113.274 120.966 121.466 120.966 Z M 23.389 0.206 L 182.689 0.206 C 195.606 0.206 206.077 10.677 206.078 23.594 C 206.078 36.512 195.608 46.984 182.689 46.984 L 23.389 46.984 C 10.471 46.984 0 36.512 0 23.594 C 0.001 10.677 10.472 0.206 23.389 0.206 Z" style="stroke-linecap: square; stroke-width: 50px; fill: url('#gradient-0');"/>
</svg>