<?xml version="1.0" encoding="utf-8"?>
<svg viewBox="0 0 500 500" xmlns="http://www.w3.org/2000/svg">
  <defs/>
  <g transform="matrix(1, 0, 0, 1, 3.727989, 3.080997)">
    <path d="M 264.477 148.54 C 264.576 148.54 264.576 174.301 264.477 174.301 C 249.427 174.483 241.904 181.953 241.904 195.582 L 241.904 196.647 L 259.579 196.647 L 259.579 223.053 L 241.904 223.053 L 241.904 295.519 L 214.433 295.519 L 214.433 223.053 L 199.099 223.053 L 199.099 196.647 L 214.433 196.647 L 214.433 195.582 C 214.433 165.911 230.845 148.457 264.477 148.54 Z" style="fill: rgb(63, 75, 241);"/>
    <path d="M 354.494 253.567 C 358.185 266.912 368.194 273.585 384.521 273.585 C 395.027 273.585 402.977 270.036 408.372 262.937 L 430.52 275.714 C 420.014 290.905 404.539 298.501 384.095 298.501 C 366.49 298.501 352.364 293.177 341.716 282.529 C 331.068 271.881 325.744 258.465 325.744 242.28 C 325.744 226.237 330.997 212.856 341.503 202.137 C 352.009 191.419 365.496 186.059 381.965 186.059 C 397.582 186.059 410.466 191.454 420.617 202.244 C 430.768 213.034 435.844 226.379 435.844 242.28 C 435.844 245.829 435.489 249.592 434.779 253.567 L 354.494 253.567 Z M 354.068 232.271 L 408.372 232.271 C 406.81 225.03 403.58 219.636 398.682 216.086 C 393.784 212.537 388.212 210.762 381.965 210.762 C 374.583 210.762 368.478 212.643 363.651 216.406 C 358.824 220.168 355.629 225.456 354.068 232.271 Z" style="fill: rgb(63, 75, 241);"/>
    <path d="M 196.623 436.924 C 180.581 436.924 167.2 431.529 156.481 420.739 C 145.762 409.949 140.403 396.604 140.403 380.703 C 140.403 364.802 145.762 351.456 156.481 340.667 C 167.2 329.877 180.581 324.482 196.623 324.482 C 206.987 324.482 216.428 326.966 224.947 331.935 C 233.465 336.904 239.925 343.577 244.326 351.953 L 220.688 365.796 C 218.558 361.394 215.328 357.916 210.998 355.361 C 206.668 352.805 201.805 351.527 196.41 351.527 C 188.176 351.527 181.361 354.26 175.966 359.726 C 170.572 365.192 167.874 372.184 167.874 380.703 C 167.874 389.079 170.572 396 175.966 401.466 C 181.361 406.932 188.176 409.665 196.41 409.665 C 201.947 409.665 206.881 408.423 211.211 405.938 C 215.541 403.454 218.771 400.011 220.901 395.61 L 244.752 409.239 C 240.067 417.615 233.465 424.324 224.947 429.364 C 216.428 434.404 206.987 436.924 196.623 436.924 Z" style="fill: rgb(63, 75, 241);"/>
    <path d="M 286.621 357.703 C 286.621 360.543 288.502 362.85 292.264 364.624 C 296.027 366.399 300.605 367.961 306 369.309 C 311.395 370.658 316.79 372.362 322.185 374.42 C 327.58 376.479 332.158 379.922 335.921 384.749 C 339.683 389.576 341.564 395.61 341.564 402.85 C 341.564 413.782 337.482 422.194 329.319 428.086 C 321.156 433.978 310.969 436.924 298.76 436.924 C 276.896 436.924 261.989 428.476 254.038 411.582 L 277.89 398.165 C 281.013 407.393 287.97 412.007 298.76 412.007 C 308.556 412.007 313.454 408.955 313.454 402.85 C 313.454 400.011 311.572 397.704 307.81 395.929 C 304.048 394.154 299.469 392.557 294.074 391.138 C 288.68 389.718 283.285 387.943 277.89 385.814 C 272.495 383.684 267.916 380.312 264.154 375.698 C 260.392 371.084 258.51 365.299 258.51 358.342 C 258.51 347.836 262.379 339.566 270.117 333.532 C 277.854 327.499 287.473 324.482 298.972 324.482 C 307.633 324.482 315.512 326.434 322.611 330.338 C 329.709 334.242 335.317 339.815 339.434 347.055 L 316.009 359.833 C 312.602 352.592 306.923 348.972 298.972 348.972 C 295.423 348.972 292.477 349.753 290.135 351.314 C 287.792 352.876 286.621 355.006 286.621 357.703 Z" style="fill: rgb(63, 75, 241);"/>
    <path d="M 381.334 357.703 C 381.334 360.543 383.215 362.85 386.977 364.624 C 390.74 366.399 395.318 367.961 400.713 369.309 C 406.108 370.658 411.503 372.362 416.898 374.42 C 422.293 376.479 426.871 379.922 430.634 384.749 C 434.396 389.576 436.277 395.61 436.277 402.85 C 436.277 413.782 432.195 422.194 424.032 428.086 C 415.869 433.978 405.682 436.924 393.473 436.924 C 371.609 436.924 356.702 428.476 348.751 411.582 L 372.603 398.165 C 375.726 407.393 382.683 412.007 393.473 412.007 C 403.269 412.007 408.167 408.955 408.167 402.85 C 408.167 400.011 406.286 397.704 402.523 395.929 C 398.761 394.154 394.182 392.557 388.787 391.138 C 383.393 389.718 377.998 387.943 372.603 385.814 C 367.208 383.684 362.629 380.312 358.867 375.698 C 355.105 371.084 353.223 365.299 353.223 358.342 C 353.223 347.836 357.092 339.566 364.83 333.532 C 372.567 327.499 382.186 324.482 393.685 324.482 C 402.346 324.482 410.225 326.434 417.324 330.338 C 424.422 334.242 430.03 339.815 434.147 347.055 L 410.722 359.833 C 407.315 352.592 401.636 348.972 393.685 348.972 C 390.136 348.972 387.19 349.753 384.848 351.314 C 382.505 352.876 381.334 355.006 381.334 357.703 Z" style="fill: rgb(63, 75, 241);"/>
    <rect x="281.019" y="148.457" width="27.421" height="147.062" style="stroke-linecap: square; stroke-width: 50px; fill: rgb(63, 75, 241);"/>
  </g>
  <path d="M 499.505 0.495 L 499.505 499.505 L 0.495 499.505 L 0.495 0.495 L 499.505 0.495 Z M 24.495 475.505 L 475.505 475.505 L 475.505 23.495 L 24.495 23.495 L 24.495 475.505 Z" style="fill: rgb(63, 75, 241);"/>
</svg>