<?xml version="1.0" encoding="utf-8"?>
<svg viewBox="0 0 300 300" xmlns="http://www.w3.org/2000/svg">
  <defs>
    <linearGradient gradientUnits="userSpaceOnUse" x1="150.025" y1="36.308" x2="150.025" y2="258.095" id="gradient-0" gradientTransform="matrix(0.688825, 0.724927, -1.352649, 1.352649, 245.770975, -157.869214)">
      <stop offset="0" style="stop-color: rgb(84, 95, 242);"/>
      <stop offset="1" style="stop-color: rgb(109, 237, 231);"/>
    </linearGradient>
  </defs>
  <path d="M 86.143 36.308 L 213.907 36.308 C 224.267 36.308 232.666 44.705 232.667 55.063 C 232.667 65.421 224.268 73.818 213.907 73.818 L 86.143 73.818 C 75.782 73.818 67.383 65.421 67.383 55.063 C 67.384 44.705 75.783 36.308 86.143 36.308 Z M 41.614 183.724 L 258.436 183.724 C 265.006 183.724 270.332 189.049 270.332 195.618 L 270.332 195.619 C 270.332 202.187 265.006 207.514 258.436 207.514 L 41.614 207.514 C 35.044 207.514 29.718 202.187 29.718 195.619 L 29.718 195.618 C 29.718 189.049 35.044 183.724 41.614 183.724 Z M 61.645 133.142 L 238.404 133.142 C 244.975 133.142 250.301 138.466 250.301 145.036 L 250.301 145.037 C 250.301 151.606 244.975 156.931 238.404 156.931 L 61.645 156.931 C 55.073 156.931 49.748 151.606 49.748 145.037 L 49.748 145.036 C 49.748 138.466 55.073 133.142 61.645 133.142 Z M 79.279 234.304 L 220.771 234.304 C 227.342 234.304 232.667 239.631 232.667 246.2 L 232.667 246.201 C 232.667 252.769 227.342 258.095 220.771 258.095 L 79.279 258.095 C 72.708 258.095 67.383 252.769 67.383 246.201 L 67.383 246.2 C 67.383 239.631 72.708 234.304 79.279 234.304 Z" style="stroke-linecap: square; stroke-width: 50px; fill: url('#gradient-0');"/>
</svg>