<?xml version="1.0" encoding="utf-8"?>
<svg viewBox="0 0 300 300" xmlns="http://www.w3.org/2000/svg">
  <defs>
    <linearGradient gradientUnits="userSpaceOnUse" x1="150" y1="56.142" x2="150" y2="238.261" id="gradient-0" gradientTransform="matrix(-0.934898, -0.940901, 1.647274, -1.647274, 47.753498, 533.616354)">
      <stop offset="0" style="stop-color: rgb(163, 163, 255);"/>
      <stop offset="1" style="stop-color: rgb(95, 255, 226);"/>
    </linearGradient>
  </defs>
  <rect width="300" height="300" style="stroke-linecap: square; stroke-width: 50px; fill: rgb(235, 240, 239);"/>
  <path d="M 41.576 183.736 L 258.424 183.736 C 264.995 183.736 270.322 189.063 270.322 195.635 L 270.322 195.636 C 270.322 202.207 264.995 207.534 258.424 207.534 L 41.576 207.534 C 35.005 207.534 29.678 202.207 29.678 195.636 L 29.678 195.635 C 29.678 189.063 35.005 183.736 41.576 183.736 Z M 116.915 234.336 L 258.424 234.336 C 264.995 234.336 270.322 239.663 270.322 246.235 L 270.322 246.236 C 270.322 252.806 264.995 258.134 258.424 258.134 L 116.915 258.134 C 110.344 258.134 105.017 252.806 105.017 246.236 L 105.017 246.235 C 105.017 239.663 110.344 234.336 116.915 234.336 Z M 81.643 133.136 L 258.424 133.136 C 264.995 133.136 270.322 138.463 270.322 145.034 L 270.322 145.037 C 270.322 151.607 264.995 156.935 258.424 156.935 L 81.643 156.935 C 75.072 156.935 69.745 151.607 69.745 145.037 L 69.745 145.034 C 69.745 138.463 75.072 133.136 81.643 133.136 Z M 123.779 36.269 L 251.56 36.269 C 261.922 36.269 270.321 44.669 270.322 55.029 C 270.322 65.393 261.923 73.792 251.56 73.792 L 123.779 73.792 C 113.416 73.792 105.017 65.393 105.017 55.029 C 105.018 44.669 113.418 36.269 123.779 36.269 Z" style="stroke-linecap: square; stroke-width: 50px; fill: url('#gradient-0');"/>
</svg>