<?xml version="1.0" encoding="utf-8"?>
<svg viewBox="0 0 300 300" xmlns="http://www.w3.org/2000/svg">
  <defs>
    <linearGradient gradientUnits="userSpaceOnUse" x1="150" y1="56.142" x2="150" y2="238.261" id="gradient-0" gradientTransform="matrix(-0.93717, -0.949193, 1.647274, -1.647275, 48.094166, 534.860243)">
      <stop offset="0" style="stop-color: rgb(163, 163, 255);"/>
      <stop offset="1" style="stop-color: rgb(95, 255, 226);"/>
    </linearGradient>
  </defs>
  <rect width="300" height="300" style="stroke-linecap: square; stroke-width: 50px; fill: rgb(235, 240, 239);"/>
  <path d="M 48.772 36.633 L 176.136 36.633 C 186.463 36.633 194.835 45.004 194.836 55.331 C 194.836 65.66 186.464 74.032 176.136 74.032 L 48.772 74.032 C 38.444 74.032 30.072 65.66 30.072 55.331 C 30.073 45.004 38.445 36.633 48.772 36.633 Z M 41.931 183.617 L 258.069 183.617 C 264.618 183.617 269.928 188.926 269.928 195.477 L 269.928 195.478 C 269.928 202.028 264.618 207.337 258.069 207.337 L 41.931 207.337 C 35.382 207.337 30.072 202.028 30.072 195.478 L 30.072 195.477 C 30.072 188.926 35.382 183.617 41.931 183.617 Z M 41.931 133.182 L 218.133 133.182 C 224.683 133.182 229.993 138.493 229.993 145.042 L 229.993 145.043 C 229.993 151.592 224.683 156.903 218.133 156.903 L 41.931 156.903 C 35.382 156.903 30.072 151.592 30.072 145.043 L 30.072 145.042 C 30.072 138.493 35.382 133.182 41.931 133.182 Z M 41.931 234.051 L 182.977 234.051 C 189.527 234.051 194.836 239.36 194.836 245.91 L 194.836 245.911 C 194.836 252.461 189.527 257.771 182.977 257.771 L 41.931 257.771 C 35.382 257.771 30.072 252.461 30.072 245.911 L 30.072 245.91 C 30.072 239.36 35.382 234.051 41.931 234.051 Z" style="stroke-linecap: square; stroke-width: 50px; fill: url('#gradient-0');"/>
</svg>